<?xml version="1.0" encoding="utf-8"?>
<!-- Generator: Adobe Illustrator 26.0.3, SVG Export Plug-In . SVG Version: 6.00 Build 0)  -->
<svg version="1.1" id="Layer_1" xmlns="http://www.w3.org/2000/svg" xmlns:xlink="http://www.w3.org/1999/xlink" x="0px" y="0px"
	 viewBox="0 0 460.77 460.77" style="enable-background:new 0 0 460.77 460.77;" xml:space="preserve">
<style type="text/css">
	.st0{fill:#4f46e5}
</style>
<path class="st0" d="M230.38,0C-73.17,7.57-73.6,452.78,230.39,460.77C533.91,453.24,534.38,7.97,230.38,0z M26.24,230.38
	C21.96,102.55,168.26-21.71,290.63,46.14c84.33,45.63,104.84,259.82-10.11,280.23c52.58-73.45,35.46-209.25-68.28-219.59
	C60.53,95.38,42.36,299.83,115.32,398.93C61.56,362.12,26.24,300.3,26.24,230.38z M236.4,324.8
	c-77.65-23.73-72.41-141.54-21.26-191.06c86.27,16.03,84.17,141.74,30.49,193.29C242.51,326.48,239.43,325.71,236.4,324.8z
	 M381.05,368.14c-34.27,37.46-80.86,60.71-131.18,65.47v0c-14.24,2.87-55.66-2.52-79.73-18.99
	c-84.33-45.64-104.84-259.8,10.1-280.23c-52.8,72.88-35.01,209.65,68.28,219.59c151.71,11.42,169.88-193.05,96.92-292.15
	C444.87,124.74,465.41,281.69,381.05,368.14z"/>
</svg>
