<?xml version="1.0" encoding="utf-8"?>
<!-- Generator: Adobe Illustrator 26.0.3, SVG Export Plug-In . SVG Version: 6.00 Build 0)  -->
<svg version="1.1" id="Layer_1" xmlns="http://www.w3.org/2000/svg" xmlns:xlink="http://www.w3.org/1999/xlink" x="0px" y="0px"
	 viewBox="0 0 613.48 146.25" style="enable-background:new 0 0 613.48 146.25;" xml:space="preserve">
<style type="text/css">
	.st0{fill:none;}
	.st1{fill:#36D399;}
	.st2{fill:#F97415;}
	.st3{fill:#D948EF;}
	.st4{fill:#3C83F6;}
	.st5{fill:#31373F;}
</style>
<g>
	<path class="st0" d="M328.51,67.51c0,3.88,0.88,7.6,2.63,11.16c1.75,3.56,4.23,6.49,7.42,8.8c3.19,2.31,7,3.47,11.44,3.47
		c2.02,0,3.88-0.26,5.63-0.71c0.14-0.26,0.3-0.51,0.43-0.78c1.71-3.6,2.57-7.35,2.57-11.23c0-3.88-0.86-7.63-2.57-11.23
		c-1.71-3.6-4.18-6.54-7.42-8.81c-3.24-2.26-7.07-3.4-11.51-3.4c-2.02,0-3.91,0.27-5.68,0.74c-0.12,0.23-0.27,0.44-0.38,0.68
		C329.36,59.77,328.51,63.53,328.51,67.51z"/>
	<path class="st0" d="M581.8,57.42c-0.83-0.28-2.24-0.67-4.23-1.18c-1.99-0.5-4.97-0.76-8.94-0.76c-2.92,0-5.59,0.43-8.05,1.19
		c-1.75,3.36-2.66,7.19-2.66,11.52c0,3.88,0.62,7.44,1.87,10.67c1.25,3.24,3.26,5.82,6.03,7.76c2.77,1.94,6.33,2.91,10.67,2.91
		c1.62,0,3.09-0.15,4.48-0.39c0.52-1.61,0.82-3.27,0.82-4.98V57.42z"/>
	<polygon class="st1" points="16.22,18.05 7.34,18.05 40.89,110.52 66.81,110.52 68.86,104.89 47.73,104.89 	"/>
	<polygon class="st1" points="79.44,18.05 74.3,18.05 62.77,56.26 65.43,64.49 	"/>
	<polygon class="st1" points="115.1,45.36 108.26,45.36 108.26,110.52 131.69,110.52 131.69,104.89 115.1,104.89 	"/>
	<path class="st1" d="M177.9,107.11c-5.64,0-11.21-0.76-16.71-2.29c-5.5-1.53-9.96-3.77-13.38-6.72l5.23-7.77
		c-0.75-0.46-1.47-0.93-2.09-1.44l-6.41,9.52v1.39h-0.93l-2.64,3.92c3.42,2.96,7.88,5.2,13.38,6.72c5.5,1.52,11.07,2.29,16.71,2.29
		c3.51,0,7-0.35,10.47-1.04c3.47-0.69,6.68-1.85,9.64-3.47c2.49-1.36,4.53-3.14,6.17-5.29c-2.77,1.44-5.75,2.49-8.96,3.13
		C184.9,106.76,181.41,107.11,177.9,107.11z"/>
	<path class="st1" d="M182.2,54.16c-0.34,0-0.64,0.02-0.96,0.03c0.31,0.88,0.96,1.61,1.99,2.15c1.48,0.79,3.47,1.48,5.96,2.08
		c1.71,0.41,3.54,0.96,5.42,1.57l1.02-1.88c-1.6-0.83-3.22-1.61-4.91-2.3C188,54.71,185.15,54.16,182.2,54.16z"/>
	<path class="st1" d="M169.36,81.44c2.22,0.97,4.5,1.73,6.86,2.29c2.36,0.55,4.41,0.83,6.17,0.83c0.94,0,1.79-0.08,2.63-0.16
		c-0.21-1.3-1.12-2.34-2.82-3.07c-1.94-0.83-5.5-2.03-10.67-3.6c-5.73-1.75-10.45-4.11-14.14-7.07c-3.7-2.96-5.55-7.25-5.55-12.89
		c0-3.7,1.18-7.07,3.54-10.12c0.1-0.13,0.23-0.25,0.34-0.38c-2.95,1.64-5.35,3.64-7.18,6.01c-2.36,3.05-3.54,6.42-3.54,10.12
		c0,5.64,1.85,9.93,5.55,12.89c2.9,2.33,6.46,4.26,10.62,5.85l2.65-3.94C165.3,79.38,167.15,80.47,169.36,81.44z"/>
	<path class="st2" d="M266.07,107.11c-9.06,0-17.07-2.1-24.05-6.31c-6.98-4.2-12.41-9.93-16.29-17.19
		c-3.88-7.25-5.82-15.46-5.82-24.6c0-6.75,1.11-13.05,3.33-18.92c2.22-5.87,5.38-11.04,9.5-15.53c0.39-0.43,0.83-0.8,1.23-1.21
		c-2.95,1.96-5.67,4.21-8.08,6.84c-4.11,4.48-7.28,9.66-9.5,15.53s-3.33,12.18-3.33,18.92c0,9.15,1.94,17.35,5.82,24.6
		c3.88,7.26,9.31,12.99,16.29,17.19c6.98,4.21,14.99,6.31,24.05,6.31c6.47,0,12.15-1.09,17.05-3.26c4.9-2.17,8.96-4.72,12.2-7.63
		c0.85-0.76,1.63-1.5,2.35-2.21c-2.3,1.52-4.84,2.94-7.71,4.21C278.22,106.02,272.53,107.11,266.07,107.11z"/>
	<path class="st2" d="M286.12,86.54c-0.08,0.08-0.17,0.18-0.25,0.27c0.12-0.06,0.23-0.13,0.35-0.19L286.12,86.54z"/>
	<path class="st2" d="M278.75,24.42c-3.37-1.53-7.46-2.29-12.27-2.29c-6.48,0-12.06,1.57-16.79,4.64c-1.02,1.09-1.96,2.25-2.83,3.49
		c3.8-1.64,8.04-2.5,12.78-2.5c4.8,0,8.89,0.76,12.27,2.29c3.37,1.52,6.19,3.4,8.46,5.61c2.26,2.22,4.14,4.39,5.62,6.52l6.74-5.75
		c-1.47-2.08-3.3-4.21-5.52-6.39C284.94,27.82,282.12,25.94,278.75,24.42z"/>
	<path class="st2" d="M362.9,61.36c-1.71-3.6-4.18-6.54-7.42-8.81c-3.24-2.26-7.07-3.4-11.51-3.4c-3.78,0-7.1,0.88-10.01,2.52
		c-0.96,1.18-1.79,2.46-2.51,3.84c1.77-0.47,3.66-0.74,5.68-0.74c4.44,0,8.27,1.13,11.51,3.4c3.23,2.27,5.71,5.2,7.42,8.81
		c1.71,3.6,2.57,7.35,2.57,11.23c0,3.88-0.86,7.62-2.57,11.23c-0.13,0.27-0.29,0.51-0.43,0.78c1.54-0.4,2.98-0.98,4.32-1.73
		c1.15-1.41,2.14-2.96,2.95-4.68c1.71-3.6,2.57-7.35,2.57-11.23C365.46,68.71,364.61,64.97,362.9,61.36z"/>
	<path class="st2" d="M343.97,106.83c-6.56,0-12.43-1.55-17.61-4.64c-5.18-3.1-9.22-7.25-12.13-12.48
		c-2.91-5.22-4.37-10.93-4.37-17.12c0-6.28,1.46-12.01,4.37-17.19c1.32-2.35,2.91-4.45,4.69-6.37c-4.88,3.05-8.74,7.03-11.53,12
		c-2.91,5.18-4.37,10.91-4.37,17.19c0,0.35,0.05,0.69,0.06,1.04l5.17,4.32c-0.88,1.36-2.18,2.89-3.82,4.56
		c0.72,2.49,1.67,4.89,2.95,7.19c2.91,5.22,6.95,9.38,12.13,12.48c5.18,3.09,11.04,4.64,17.61,4.64c6.56,0,12.41-1.55,17.54-4.64
		c2.76-1.67,5.19-3.67,7.32-5.96c-0.17,0.1-0.31,0.23-0.48,0.33C356.38,105.28,350.53,106.83,343.97,106.83z"/>
	<path class="st2" d="M392.22,47.09c0-0.33,0-0.69,0-1.03h-6.98c0.09,1.85,0.14,3.21,0.14,4.09s0,1.73,0,2.56v57.81h12.48v-5.63
		h-5.64V47.09z"/>
	<path class="st2" d="M438.38,67.19c0-6.01-1.32-10.42-3.95-13.24c-2.63-2.82-6.26-4.23-10.88-4.23c-3.05,0-5.65,0.57-7.89,1.59
		c-0.95,1.3-1.76,2.72-2.4,4.28c1.09-0.16,2.23-0.25,3.45-0.25c4.62,0,8.25,1.41,10.88,4.23c2.63,2.82,3.95,7.23,3.95,13.24v37.71
		h12.48v-5.63h-5.64V67.19z"/>
	<path class="st2" d="M466.86,35.34h5.74c0.28-5.57,1.52-10.2,3.83-13.77c0.48-0.74,1.02-1.4,1.56-2.06
		c-3.41,1.81-6.24,4.35-8.4,7.69c-2.24,3.46-3.47,7.9-3.8,13.23h1.07V35.34z"/>
	<path class="st2" d="M472.48,50.83h-11.64v-4.77h-6.84v0.39c1.36,2.93,2.23,6.27,2.62,10.01h9.02v54.06h12.48v-5.63h-5.64V50.83z"
		/>
	<path class="st2" d="M502.14,20.75c-3.64,0-6.7,0.57-9.28,1.61c-0.66,1.22-1.18,2.61-1.48,4.25c1.23-0.15,2.53-0.23,3.92-0.23
		c3.51,0,6.72,0.56,9.63,1.66c2.92,1.11,5.48,2.45,7.69,4.02l4.37-7.13c-1.61-0.92-3.31-1.79-5.22-2.51
		C508.87,21.3,505.66,20.75,502.14,20.75z"/>
	<polygon class="st2" points="512.82,50.83 490.98,50.83 490.98,56.45 505.98,56.45 505.98,110.52 518.46,110.52 518.46,104.89 
		512.82,104.89 	"/>
	<path class="st2" d="M554.54,132.06c-3.88-1.48-7.03-3.1-9.43-4.85l1.34-2.1c-0.83-0.45-1.63-0.92-2.35-1.42l-5.82,9.15
		c2.4,1.75,5.55,3.37,9.43,4.85c3.88,1.48,9.1,2.22,15.66,2.22c9.7,0,17.28-2.59,22.74-7.76c0.66-0.63,1.27-1.28,1.85-1.97
		c-4.8,2.72-10.71,4.1-17.75,4.1C563.64,134.28,558.42,133.54,554.54,132.06z"/>
	<path class="st2" d="M560.59,56.68c2.46-0.76,5.13-1.19,8.05-1.19c3.97,0,6.95,0.26,8.94,0.76c1.99,0.51,3.4,0.9,4.23,1.18v26.75
		c0,1.71-0.29,3.36-0.82,4.98c1.8-0.31,3.42-0.81,4.85-1.52c0.31-0.45,0.62-0.91,0.87-1.39c1.29-2.45,1.94-5.01,1.94-7.69V51.8
		c-0.83-0.28-2.24-0.67-4.23-1.18c-1.99-0.5-4.97-0.76-8.94-0.76c-4.71,0-8.83,0.99-12.34,2.98c-0.01,0.01-0.02,0.01-0.03,0.02
		c-0.8,0.98-1.56,2-2.2,3.14C560.79,56.22,560.7,56.45,560.59,56.68z"/>
	<path class="st2" d="M588.51,104.89v-7.9c-0.83,0.74-2.08,1.78-3.74,3.12c-1.66,1.34-3.81,2.56-6.45,3.67s-5.89,1.66-9.77,1.66
		c-6.29,0-11.62-1.39-16.01-4.16c-4.39-2.77-7.72-6.58-9.98-11.44c-2.26-4.85-3.4-10.33-3.4-16.43c0-6.66,1.53-12.59,4.57-17.81
		c1.19-2.04,2.63-3.86,4.19-5.56c-4.61,2.85-8.32,6.55-11.03,11.18c-3.05,5.22-4.57,11.16-4.57,17.81c0,6.1,1.13,11.57,3.4,16.43
		c2.26,4.85,5.59,8.66,9.98,11.44c4.39,2.77,9.72,4.16,16.01,4.16c3.88,0,7.14-0.56,9.77-1.66c2.63-1.11,4.78-2.33,6.45-3.67
		c1.66-1.34,2.91-2.38,3.74-3.12v7.9c0,2.77-0.38,5.28-1.15,7.52c1.74-0.28,3.26-0.81,4.67-1.44
		C587.36,113.43,588.51,109.56,588.51,104.89z"/>
	<polygon class="st3" points="61.73,76.75 65.43,64.49 62.77,56.26 46.96,7.34 20.2,7.34 22.05,12.43 40.94,12.43 	"/>
	<polygon class="st3" points="113.36,7.34 87.16,7.34 85.62,12.43 107.34,12.43 75.51,99.8 79.67,99.8 	"/>
	<polygon class="st3" points="144.55,98.42 144.55,34.65 121.12,34.65 121.12,39.74 138.53,39.74 138.53,99.8 143.62,99.8 
		144.55,99.8 	"/>
	<path class="st3" d="M179.84,37.52c5.36,0,10.21,0.65,14.56,1.94c4.34,1.29,8.36,3.19,12.06,5.68l-4.4,8.1
		c0.85,0.45,1.7,0.88,2.52,1.37l7.9-14.56c-3.7-2.5-7.72-4.39-12.06-5.68c-4.35-1.29-9.2-1.94-14.56-1.94
		c-5.54,0-10.42,0.93-14.63,2.77c-3.96,1.74-7.07,4.04-9.39,6.84c1.06-0.63,2.17-1.23,3.37-1.76
		C169.42,38.44,174.3,37.52,179.84,37.52z"/>
	<path class="st3" d="M197.23,60.85c-0.9-0.32-1.75-0.58-2.62-0.86c-1.88-0.61-3.71-1.15-5.42-1.57c-2.49-0.6-4.48-1.29-5.96-2.08
		c-1.03-0.55-1.68-1.27-1.99-2.15c-4.15,0.17-6.25,1.44-6.25,3.85c0,1.48,0.74,2.61,2.22,3.4c1.48,0.79,3.47,1.48,5.96,2.08
		c2.5,0.6,5.18,1.41,8.04,2.43c6.56,2.22,10.95,4.99,13.17,8.32c2.22,3.33,3.33,7.25,3.33,11.78c0,3.97-0.88,7.32-2.63,10.05
		c-0.32,0.5-0.69,0.97-1.05,1.43c0,0,0,0,0,0c2.96-1.62,5.31-3.79,7.07-6.52c1.75-2.72,2.63-6.08,2.63-10.05
		c0-4.53-1.11-8.46-3.33-11.78C208.18,65.84,203.79,63.07,197.23,60.85z"/>
	<path class="st3" d="M170.21,88.81c2.36,0.55,4.41,0.83,6.17,0.83c2.4,0,4.46-0.28,6.17-0.83c1.71-0.56,2.56-1.85,2.56-3.88
		c0-0.19-0.06-0.36-0.09-0.54c-0.84,0.09-1.68,0.16-2.63,0.16c-1.76,0-3.81-0.28-6.17-0.83c-2.36-0.56-4.65-1.32-6.86-2.29
		c-2.22-0.97-4.07-2.06-5.55-3.26l-2.65,3.94l-1.59,2.37c1.12,0.72,2.34,1.41,3.77,2.04C165.56,87.5,167.85,88.26,170.21,88.81z"/>
	<path class="st4" d="M266.34,10.21c6.56,0,12.2,1,16.91,2.98c4.71,1.99,8.62,4.39,11.71,7.21c3.09,2.82,5.52,5.53,7.28,8.11
		l-3.43,2.92c0.01,0.01,0.02,0.02,0.02,0.03l9.43-8.04c-1.76-2.58-4.18-5.29-7.28-8.11c-3.1-2.82-7-5.22-11.71-7.21
		c-4.71-1.99-10.35-2.98-16.91-2.98c-6.93,0-13.24,1.27-18.92,3.81c-5.12,2.29-9.58,5.42-13.42,9.29c2.3-1.6,4.76-3.02,7.4-4.2
		C253.1,11.48,259.41,10.21,266.34,10.21z"/>
	<path class="st4" d="M249.08,27.12c-4.85,3.33-8.6,7.74-11.23,13.24c-2.63,5.5-3.95,11.62-3.95,18.37c0,6.65,1.32,12.71,3.95,18.16
		c2.63,5.45,6.35,9.77,11.16,12.96c4.8,3.19,10.49,4.78,17.05,4.78c5.54,0,10.07-0.88,13.59-2.63c3.51-1.75,6.31-3.72,8.39-5.89
		c0.41-0.42,0.78-0.82,1.15-1.21c-0.93,0.59-1.91,1.17-2.98,1.72c-0.12,0.06-0.23,0.13-0.35,0.19c-0.07,0.03-0.13,0.07-0.19,0.1
		c-3.51,1.76-8.04,2.63-13.59,2.63c-6.56,0-12.25-1.59-17.05-4.78c-4.81-3.19-8.53-7.51-11.16-12.96
		c-2.63-5.45-3.95-11.51-3.95-18.16c0-6.75,1.32-12.87,3.95-18.37c0.86-1.8,1.89-3.44,2.99-5.01c0.87-1.24,1.81-2.4,2.83-3.49
		C249.5,26.9,249.28,26.99,249.08,27.12z"/>
	<path class="st4" d="M303.09,79.26l-4.11-3.44c-1.2,1.29-2.84,3.03-4.92,5.2c-0.14,0.15-0.31,0.28-0.45,0.43l8.64,7.22
		c-1.01,1.55-2.53,3.32-4.52,5.28c1.29-0.9,2.51-1.83,3.61-2.81c1.17-1.06,2.18-2.04,3.11-2.99c1.63-1.67,2.93-3.2,3.82-4.56
		L303.09,79.26z"/>
	<path class="st4" d="M349.99,90.93c-4.44,0-8.25-1.16-11.44-3.47c-3.19-2.31-5.66-5.25-7.42-8.8c-1.76-3.56-2.63-7.28-2.63-11.16
		c0-3.97,0.85-7.74,2.56-11.3c0.11-0.24,0.26-0.45,0.38-0.68c0.72-1.38,1.55-2.67,2.51-3.84c-0.5,0.28-1.02,0.54-1.49,0.87
		c-3.24,2.27-5.71,5.18-7.42,8.73c-1.71,3.56-2.56,7.32-2.56,11.3c0,3.88,0.88,7.6,2.63,11.16c1.75,3.56,4.23,6.49,7.42,8.8
		c3.19,2.31,7,3.47,11.44,3.47c4.53,0,8.39-1.13,11.57-3.4c1.67-1.19,3.13-2.57,4.39-4.13c-1.34,0.75-2.77,1.33-4.32,1.73
		C353.87,90.67,352.01,90.93,349.99,90.93z"/>
	<path class="st4" d="M367.53,37.91c-5.13-3.1-10.98-4.65-17.54-4.65c-6.56,0-12.43,1.55-17.61,4.65c-2.85,1.71-5.32,3.76-7.49,6.09
		c0.49-0.33,0.95-0.7,1.47-1.01c5.18-3.1,11.04-4.65,17.61-4.65c6.56,0,12.41,1.55,17.54,4.65c5.13,3.1,9.17,7.23,12.13,12.41
		c2.96,5.18,4.44,10.91,4.44,17.19c0,6.19-1.48,11.9-4.44,17.12c-1.35,2.38-2.95,4.51-4.75,6.45c4.47-2.99,8.09-6.8,10.77-11.54
		c2.96-5.22,4.44-10.93,4.44-17.12c0-6.28-1.48-12.01-4.44-17.19C376.7,45.14,372.66,41.01,367.53,37.91z"/>
	<path class="st4" d="M450.77,41.24c-4.07-4.94-10.31-7.42-18.71-7.42c-3.98,0-7.37,0.62-10.19,1.87c-2.82,1.25-5.15,2.73-7,4.44
		c-0.89,0.82-1.68,1.63-2.4,2.41c1.04-0.63,2.15-1.22,3.38-1.76c2.82-1.25,6.21-1.87,10.19-1.87c8.41,0,14.65,2.47,18.71,7.42
		c4.07,4.94,6.1,11.57,6.1,19.89V99.8h6.02V61.13c0-1.63-0.1-3.17-0.26-4.67c-0.39-3.74-1.26-7.08-2.62-10.01
		C453.12,44.55,452.06,42.8,450.77,41.24z"/>
	<path class="st4" d="M404.41,50.13c1.11-1.57,2.59-3.21,4.44-4.92c0.48-0.44,0.99-0.87,1.54-1.28l-0.37-8.59H398.1
		c0.09,1.85,0.14,3.21,0.14,4.09c0,0.34,0,0.66,0,1H404L404.41,50.13z"/>
	<path class="st4" d="M412.32,53.39c-2.77,2.45-4.74,5.62-5.89,9.5c-1.16,3.88-1.73,7.9-1.73,12.06V99.8h6.02V69.86
		c0-4.16,0.58-8.18,1.73-12.06c0.23-0.77,0.51-1.49,0.81-2.2c0.64-1.57,1.45-2.99,2.4-4.28C414.44,51.87,413.29,52.53,412.32,53.39z
		"/>
	<path class="st4" d="M490.98,31.05c0-1.63,0.16-3.09,0.41-4.44c0.3-1.64,0.82-3.03,1.48-4.25c-1.22,0.49-2.36,1.06-3.34,1.79
		c-3.05,2.27-4.57,6.26-4.57,11.99v4.3h40.34V99.8h6.02V35.34h-40.34V31.05z"/>
	<path class="st4" d="M502.14,10.07c3.79,0,7.77,0.6,11.92,1.8c4.16,1.2,7.85,2.96,11.09,5.27l-1.78,2.91
		c0.71,0.42,1.46,0.83,2.12,1.29l5.69-9.29c-3.24-2.31-6.93-4.07-11.09-5.27c-4.16-1.2-8.13-1.8-11.92-1.8
		c-5.54,0-10.56,0.9-15.04,2.7c-3.58,1.44-6.55,3.64-8.95,6.52c0.93-0.53,1.9-1.02,2.93-1.44C491.58,10.97,496.6,10.07,502.14,10.07
		z"/>
	<path class="st4" d="M466.86,40.43h5.62v-2.77c0-0.81,0.08-1.54,0.12-2.31h-5.74V40.43z"/>
	<polygon class="st4" points="484.96,50.83 484.96,99.8 490.98,99.8 490.98,56.45 490.98,50.83 	"/>
	<path class="st4" d="M570.07,123.47c6.19,0,10.81-1.71,13.86-5.13c0.48-0.54,0.86-1.15,1.26-1.74c-1.41,0.64-2.93,1.16-4.67,1.44
		c-1.38,0.22-2.85,0.34-4.43,0.34c-4.44,0-8.2-0.53-11.3-1.6c-3.1-1.06-5.71-2.34-7.83-3.81l-4.02,6.32
		c1.71,0.96,3.64,1.82,5.84,2.58C561.87,122.94,565.63,123.47,570.07,123.47z"/>
	<path class="st4" d="M596.12,35.2c-4.57-0.92-9.45-1.38-14.62-1.38c-7.21,0-13.54,1.48-18.99,4.44c-3.3,1.79-6.1,4.04-8.52,6.66
		c0.82-0.54,1.62-1.09,2.5-1.57c5.45-2.96,11.78-4.44,18.99-4.44c5.18,0,10.05,0.46,14.62,1.38c4.57,0.93,8.25,1.94,11.02,3.05
		v61.55c0,8.22-2.17,14.82-6.48,19.83c1.56-0.95,3.01-2.04,4.33-3.29c5.45-5.18,8.18-12.38,8.18-21.63V38.26
		C604.37,37.15,600.69,36.13,596.12,35.2z"/>
	<path class="st4" d="M580.99,89.15c-1.39,0.24-2.86,0.39-4.48,0.39c-4.34,0-7.9-0.97-10.67-2.91c-2.77-1.94-4.78-4.53-6.03-7.76
		c-1.25-3.23-1.87-6.79-1.87-10.67c0-4.34,0.91-8.16,2.66-11.52c0.12-0.22,0.2-0.46,0.32-0.68c0.64-1.14,1.4-2.16,2.2-3.14
		c-3.5,1.99-6.24,4.73-8.22,8.23c-1.99,3.51-2.98,7.58-2.98,12.2c0,3.88,0.62,7.44,1.87,10.67c1.25,3.24,3.26,5.82,6.03,7.76
		c2.77,1.94,6.33,2.91,10.67,2.91c4.16,0,7.58-0.78,10.26-2.36c2.15-1.26,3.83-2.81,5.09-4.64
		C584.4,88.34,582.79,88.85,580.99,89.15z"/>
	<g>
		<polygon class="st5" points="85.62,12.43 81.14,12.43 79.44,18.05 65.43,64.49 61.73,76.75 40.94,12.43 22.05,12.43 14.18,12.43 
			16.22,18.05 47.73,104.89 68.86,104.89 73.65,104.89 75.51,99.8 107.34,12.43 		"/>
		<polygon class="st5" points="121.12,39.74 115.1,39.74 115.1,45.36 115.1,104.89 131.69,104.89 138.53,104.89 138.53,99.8 
			138.53,39.74 		"/>
		<path class="st5" d="M207.7,86.04c0-4.53-1.11-8.46-3.33-11.78c-2.22-3.33-6.61-6.1-13.17-8.32c-2.87-1.02-5.54-1.82-8.04-2.43
			c-2.49-0.6-4.48-1.29-5.96-2.08c-1.48-0.78-2.22-1.92-2.22-3.4c0-2.4,2.1-3.68,6.25-3.85c0.32-0.01,0.62-0.03,0.96-0.03
			c2.96,0,5.8,0.55,8.53,1.66c1.68,0.69,3.31,1.47,4.91,2.3c0.99,0.51,1.97,1.02,2.92,1.59l3.5-6.45l4.4-8.1
			c-3.7-2.5-7.72-4.39-12.06-5.68c-4.35-1.29-9.2-1.94-14.56-1.94c-5.54,0-10.42,0.93-14.63,2.77c-1.21,0.53-2.32,1.13-3.37,1.76
			c-2.46,1.47-4.5,3.2-6.13,5.21c-0.11,0.13-0.24,0.25-0.34,0.38c-2.36,3.05-3.54,6.42-3.54,10.12c0,5.64,1.85,9.93,5.55,12.89
			c3.69,2.96,8.41,5.31,14.14,7.07c5.17,1.57,8.73,2.77,10.67,3.6c1.71,0.73,2.62,1.77,2.82,3.07c0.03,0.18,0.09,0.35,0.09,0.54
			c0,2.04-0.85,3.33-2.56,3.88c-1.71,0.55-3.77,0.83-6.17,0.83c-1.76,0-3.81-0.28-6.17-0.83c-2.36-0.56-4.65-1.32-6.86-2.29
			c-1.43-0.63-2.65-1.32-3.77-2.04c-0.62-0.4-1.25-0.79-1.78-1.22l-4.75,7.06l-5.23,7.77c3.42,2.96,7.88,5.2,13.38,6.72
			c5.5,1.52,11.07,2.29,16.71,2.29c3.51,0,7-0.35,10.47-1.04c3.21-0.64,6.19-1.7,8.96-3.13c0.22-0.11,0.45-0.21,0.67-0.33
			c2.41-1.32,4.4-3.03,6.02-5.08c0.36-0.46,0.73-0.93,1.05-1.43C206.82,93.36,207.7,90.01,207.7,86.04z"/>
		<path class="st5" d="M293.6,81.45l-0.64-0.54c-0.97,1.04-2.23,2.38-3.77,3.99c-0.37,0.39-0.75,0.78-1.15,1.21
			c-2.08,2.17-4.88,4.14-8.39,5.89c-3.51,1.76-8.04,2.63-13.59,2.63c-6.56,0-12.25-1.59-17.05-4.78
			c-4.81-3.19-8.53-7.51-11.16-12.96c-2.63-5.45-3.95-11.51-3.95-18.16c0-6.75,1.32-12.87,3.95-18.37
			c2.63-5.5,6.38-9.91,11.23-13.24c0.19-0.13,0.41-0.22,0.61-0.35c4.73-3.07,10.31-4.64,16.79-4.64c4.8,0,8.89,0.76,12.27,2.29
			c3.37,1.52,6.19,3.4,8.46,5.61c2.22,2.18,4.05,4.31,5.52,6.39c0.03,0.04,0.07,0.08,0.1,0.13l6-5.12l3.43-2.92
			c-1.76-2.58-4.18-5.29-7.28-8.11c-3.1-2.82-7-5.22-11.71-7.21c-4.71-1.99-10.35-2.98-16.91-2.98c-6.93,0-13.24,1.27-18.92,3.81
			c-2.64,1.18-5.1,2.6-7.4,4.2c-2.18,1.51-4.18,3.23-6.06,5.12c-0.41,0.41-0.84,0.79-1.23,1.21c-4.11,4.48-7.28,9.66-9.5,15.53
			c-2.22,5.87-3.33,12.18-3.33,18.92c0,9.15,1.94,17.35,5.82,24.6c3.88,7.26,9.31,12.99,16.29,17.19
			c6.98,4.21,14.99,6.31,24.05,6.31c6.47,0,12.15-1.09,17.05-3.26c2.86-1.27,5.41-2.68,7.71-4.21c1.63-1.08,3.15-2.21,4.49-3.42
			c0.88-0.79,1.67-1.54,2.41-2.27c1.99-1.97,3.51-3.73,4.52-5.28L293.6,81.45z"/>
		<path class="st5" d="M378.08,72.59c0-6.28-1.48-12.01-4.44-17.19c-2.96-5.18-7-9.31-12.13-12.41c-5.13-3.1-10.98-4.65-17.54-4.65
			c-6.56,0-12.43,1.55-17.61,4.65c-0.52,0.31-0.97,0.68-1.47,1.01c-2.21,1.48-4.21,3.14-5.97,5.03c-1.79,1.92-3.37,4.02-4.69,6.37
			c-2.91,5.18-4.37,10.91-4.37,17.19c0,6.19,1.46,11.9,4.37,17.12c2.91,5.22,6.95,9.38,12.13,12.48c5.18,3.09,11.04,4.64,17.61,4.64
			c6.56,0,12.41-1.55,17.54-4.64c0.17-0.1,0.31-0.23,0.48-0.33c2.59-1.62,4.88-3.52,6.9-5.7c1.8-1.94,3.4-4.07,4.75-6.45
			C376.6,84.49,378.08,78.79,378.08,72.59z M359.94,88.5c-1.27,1.56-2.72,2.94-4.39,4.13c-3.19,2.27-7.05,3.4-11.57,3.4
			c-4.44,0-8.25-1.16-11.44-3.47c-3.19-2.31-5.66-5.25-7.42-8.8c-1.76-3.56-2.63-7.28-2.63-11.16c0-3.97,0.85-7.74,2.56-11.3
			c1.71-3.56,4.18-6.47,7.42-8.73c0.48-0.33,0.99-0.59,1.49-0.87c2.91-1.65,6.23-2.52,10.01-2.52c4.44,0,8.27,1.13,11.51,3.4
			c3.23,2.27,5.71,5.2,7.42,8.81c1.71,3.6,2.57,7.35,2.57,11.23c0,3.88-0.86,7.62-2.57,11.23C362.08,85.53,361.09,87.09,359.94,88.5
			z"/>
		<path class="st5" d="M444.75,46.32c-4.07-4.94-10.31-7.42-18.71-7.42c-3.98,0-7.37,0.62-10.19,1.87
			c-1.22,0.54-2.34,1.14-3.38,1.76c-0.74,0.44-1.44,0.9-2.09,1.39c-0.54,0.41-1.06,0.84-1.54,1.28c-1.85,1.71-3.33,3.35-4.44,4.92
			l-0.42-9.7h-5.76h-6.16c0.09,1.85,0.14,3.21,0.14,4.09c0,0.53,0,1.03,0,1.54c0,0.34,0,0.69,0,1.03v57.81h5.64h6.84V99.8V74.95
			c0-4.16,0.58-8.18,1.73-12.06c1.15-3.88,3.12-7.05,5.89-9.5c0.98-0.86,2.12-1.52,3.34-2.08c2.24-1.03,4.84-1.59,7.89-1.59
			c4.62,0,8.25,1.41,10.88,4.23c2.63,2.82,3.95,7.23,3.95,13.24v37.71h5.64h6.84V99.8V66.22C450.85,57.9,448.82,51.27,444.75,46.32z
			"/>
		<path class="st5" d="M484.96,40.43v-4.3c0-5.73,1.52-9.72,4.57-11.99c0.98-0.73,2.12-1.29,3.34-1.79
			c2.57-1.04,5.64-1.61,9.28-1.61c3.51,0,6.72,0.56,9.63,1.66c1.91,0.73,3.61,1.59,5.22,2.51c0.85,0.49,1.71,0.96,2.47,1.51
			l3.9-6.38l1.78-2.91c-3.24-2.31-6.93-4.07-11.09-5.27c-4.16-1.2-8.13-1.8-11.92-1.8c-5.54,0-10.56,0.9-15.04,2.7
			c-1.03,0.41-2,0.9-2.93,1.44c-2.39,1.37-4.44,3.15-6.18,5.3c-0.54,0.66-1.08,1.32-1.56,2.06c-2.31,3.57-3.55,8.2-3.83,13.77
			c-0.04,0.77-0.12,1.5-0.12,2.31v2.77h-5.62h-1.07h-4.95v5.63v4.77h11.64v54.06h5.64h6.84V99.8V50.83h6.02h21.85v54.06h5.64h6.84
			V99.8V40.43H484.96z"/>
		<path class="st5" d="M601.12,43.34c-2.77-1.11-6.45-2.13-11.02-3.05c-4.57-0.92-9.45-1.38-14.62-1.38
			c-7.21,0-13.54,1.48-18.99,4.44c-0.88,0.48-1.68,1.03-2.5,1.57c-2.26,1.49-4.28,3.2-6.07,5.14c-1.56,1.7-2.99,3.51-4.19,5.56
			c-3.05,5.22-4.57,11.16-4.57,17.81c0,6.1,1.13,11.57,3.4,16.43c2.26,4.85,5.59,8.66,9.98,11.44c4.39,2.77,9.72,4.16,16.01,4.16
			c3.88,0,7.14-0.56,9.77-1.66s4.78-2.33,6.45-3.67c1.66-1.34,2.91-2.38,3.74-3.12v7.9c0,4.67-1.15,8.54-3.31,11.7
			c-0.4,0.59-0.78,1.2-1.26,1.74c-3.05,3.42-7.67,5.13-13.86,5.13c-4.44,0-8.2-0.53-11.3-1.6c-2.19-0.75-4.13-1.62-5.84-2.58
			c-0.7-0.4-1.38-0.8-2-1.23l-4.49,7.05l-1.34,2.1c2.4,1.75,5.55,3.37,9.43,4.85c3.88,1.48,9.1,2.22,15.66,2.22
			c7.04,0,12.94-1.38,17.75-4.1c1.82-1.03,3.49-2.24,4.99-3.66c0.6-0.57,1.16-1.18,1.69-1.8c4.31-5,6.48-11.6,6.48-19.83V43.34z
			 M580.74,92.28c-2.68,1.57-6.1,2.36-10.26,2.36c-4.34,0-7.9-0.97-10.67-2.91c-2.77-1.94-4.78-4.53-6.03-7.76
			c-1.25-3.23-1.87-6.79-1.87-10.67c0-4.62,0.99-8.69,2.98-12.2c1.98-3.5,4.72-6.24,8.22-8.23c0.01-0.01,0.02-0.01,0.03-0.02
			c3.51-1.99,7.63-2.98,12.34-2.98c3.97,0,6.95,0.26,8.94,0.76c1.99,0.51,3.4,0.9,4.23,1.18v26.75c0,2.68-0.65,5.25-1.94,7.69
			c-0.26,0.49-0.56,0.94-0.87,1.39C584.58,89.46,582.89,91.02,580.74,92.28z"/>
	</g>
</g>
</svg>
